<svg xmlns="http://www.w3.org/2000/svg" width="44" height="44" viewBox="0 0 44 44">
  <defs>
    <style>
      .cls-1 {
        fill: #80e0dd;
        fill-rule: evenodd;
      }
    </style>
  </defs>
  <path id="browser" class="cls-1" d="M25,47A22,22,0,1,1,47,25,22,22,0,0,1,25,47ZM18.872,17.592a2.025,2.025,0,0,0-1.28,1.28L12.1,35.335A2.025,2.025,0,0,0,14.666,37.9l16.462-5.488a2.025,2.025,0,0,0,1.28-1.28L37.9,14.666A2.025,2.025,0,0,0,35.334,12.1L18.872,17.592ZM25,29a4,4,0,1,1,4-4A4,4,0,0,1,25,29Z" transform="translate(-3 -3)"/>
</svg>
