<svg xmlns="http://www.w3.org/2000/svg" width="42" height="38" viewBox="0 0 42 38">
  <defs>
    <style>
      .cls-1 {
        fill: #80e0dd;
        fill-rule: evenodd;
      }
    </style>
  </defs>
  <path id="cart-3" class="cls-1" d="M41.828,18H43.06A2.97,2.97,0,0,1,46,21a3.093,3.093,0,0,1-.044.517l-2.01,11.718A11.935,11.935,0,0,1,32.114,44H17.886A11.934,11.934,0,0,1,6.055,33.235L4.045,21.517a3,3,0,0,1,2.388-3.472A2.878,2.878,0,0,1,6.94,18H8.172L19.586,6.586a2,2,0,1,1,2.828,2.828L13.828,18H36.172L27.586,9.414a2,2,0,1,1,2.828-2.828ZM17,24a2,2,0,0,0,0,4H33a2,2,0,0,0,0-4Zm3,8a2,2,0,0,0,0,4H30a2,2,0,0,0,0-4Z" transform="translate(-4 -6)"/>
</svg>
