<svg xmlns="http://www.w3.org/2000/svg" width="38" height="38" viewBox="0 0 38 38">
  <defs>
    <style>
      .cls-1 {
        fill: #80e0dd;
        fill-rule: evenodd;
      }
    </style>
  </defs>
  <path id="filter-2" class="cls-1" d="M28.866,28.625l-1.55,13.387a2.342,2.342,0,0,1-4.631,0l-1.55-13.387a7.858,7.858,0,0,0-2.178-4.56L7.739,12.476a2.977,2.977,0,0,1-.675-1.092L6.108,8.632A1.983,1.983,0,0,1,7.426,6.1a2.2,2.2,0,0,1,.66-.1H41.915A2.043,2.043,0,0,1,44,8a1.916,1.916,0,0,1-.107.632l-.956,2.752a2.977,2.977,0,0,1-.675,1.092L31.044,24.065a7.858,7.858,0,0,0-2.178,4.56Zm-14.28-14.21,5,5a2,2,0,1,0,2.828-2.83l-5-5a2,2,0,0,0-2.828,2.83Z" transform="translate(-6 -6)"/>
</svg>
