<svg xmlns="http://www.w3.org/2000/svg" width="42.001" height="41.999" viewBox="0 0 42.001 41.999">
  <defs>
    <style>
      .cls-1 {
        fill: #80e0dd;
        fill-rule: evenodd;
      }
    </style>
  </defs>
  <path id="home" class="cls-1" d="M45.964,19.38,42.384,37.9A10,10,0,0,1,32.566,46H17.435a10,10,0,0,1-9.819-8.1L4.036,19.38a2,2,0,0,1,.835-2.03l19-13a2,2,0,0,1,2.258,0l19,13a2,2,0,0,1,.835,2.03ZM32,23.79,25,19l-7,4.79,1.31,6.78A3,3,0,0,0,22.257,33h5.488a3,3,0,0,0,2.945-2.43Z" transform="translate(-4 -4.001)"/>
</svg>
