<svg xmlns="http://www.w3.org/2000/svg" width="32" height="44" viewBox="0 0 32 44">
  <defs>
    <style>
      .cls-1 {
        fill: #80e0dd;
        fill-rule: evenodd;
      }
    </style>
  </defs>
  <path id="lock" class="cls-1" d="M33,20V15a8,8,0,1,0-16,0v5ZM13,20V15a12,12,0,0,1,24,0v5a4,4,0,0,1,4,4V35A12,12,0,0,1,29,47H21A12,12,0,0,1,9,35V24a4,4,0,0,1,4-4ZM27,37V34.467a2,2,0,0,1,.693-1.513,4,4,0,1,0-5.521-.125c.039.039.084.08.135.125A2,2,0,0,1,23,34.467V37a2,2,0,0,0,4,0Z" transform="translate(-9 -3)"/>
</svg>
