<svg xmlns="http://www.w3.org/2000/svg" width="38" height="37.999" viewBox="0 0 38 37.999">
  <defs>
    <style>
      .cls-1 {
        fill: #80e0dd;
        fill-rule: evenodd;
      }
    </style>
  </defs>
  <path id="map-1" class="cls-1" d="M36.18,9.58l4.926-2.517a1.98,1.98,0,0,1,2.683.914A2.073,2.073,0,0,1,44,8.891V35.759a4.1,4.1,0,0,1-2.211,3.656l-8.13,4.153a3.922,3.922,0,0,1-3.364.1l-8.879-3.828A4,4,0,0,1,19,36.168V17.5a1.5,1.5,0,0,0-3,0V36.859a4,4,0,0,1-2.18,3.562L8.894,42.937a1.98,1.98,0,0,1-2.683-.914A2.08,2.08,0,0,1,6,41.11V14.241a4.1,4.1,0,0,1,2.211-3.656l8.13-4.153a3.922,3.922,0,0,1,3.364-.1l8.879,3.828A4,4,0,0,1,31,13.832V32.5a1.5,1.5,0,0,0,3,0V13.141a4,4,0,0,1,2.18-3.562Z" transform="translate(-6 -6.001)"/>
</svg>
