<svg xmlns="http://www.w3.org/2000/svg" width="38" height="38" viewBox="0 0 38 38">
  <defs>
    <style>
      .cls-1 {
        fill: #80e0dd;
        fill-rule: evenodd;
      }
    </style>
  </defs>
  <path id="megaphone" class="cls-1" d="M32.294,27.991C32.941,33.26,34.58,37,36.5,37c2.485,0,4.5-6.268,4.5-14S38.985,9,36.5,9c-1.92,0-3.56,3.741-4.206,9.009a5,5,0,0,1,0,9.982ZM44,23c0,9.389-3.582,17-8,17-7,0-12-8-15-8H15a9,9,0,0,1,0-18h6c3,0,8-8,15-8C40.418,6,44,13.611,44,23ZM14.8,18A4.8,4.8,0,0,0,10,22.8a1.2,1.2,0,1,0,2.4,0,2.4,2.4,0,0,1,2.4-2.4,1.2,1.2,0,1,0,0-2.4ZM16,35h3.89a2,2,0,0,1,1.953,1.567l1.11,5A2,2,0,0,1,21,44H17.11a2,2,0,0,1-1.953-1.567l-1.11-5A2,2,0,0,1,16,35Z" transform="translate(-6 -6)"/>
</svg>
