<svg xmlns="http://www.w3.org/2000/svg" width="44" height="44" viewBox="0 0 44 44">
  <defs>
    <style>
      .cls-1 {
        fill: #80e0dd;
        fill-rule: evenodd;
      }
    </style>
  </defs>
  <path id="phone-2" class="cls-1" d="M18.492,31.508c4.169,4.169,7.932,4.836,9.156,3.612a5.254,5.254,0,0,1,7.43.037l2.949,2.95a3.283,3.283,0,0,1,.023,4.643l-2.732,2.732A5.331,5.331,0,0,1,31.488,47c-4.8-.04-11.273-4.529-17.616-10.872S3.04,23.307,3,18.511a5.335,5.335,0,0,1,1.518-3.83L7.25,11.95a3.283,3.283,0,0,1,4.643.023l2.95,2.95a5.253,5.253,0,0,1,.037,7.429c-1.224,1.224-.557,4.987,3.612,9.156ZM47,27a2,2,0,0,1-4,0A20,20,0,0,0,23,7a2,2,0,0,1,0-4A24,24,0,0,1,47,27Zm-9,0a2,2,0,0,1-4,0A11,11,0,0,0,23,16a2,2,0,0,1,0-4A15,15,0,0,1,38,27Z" transform="translate(-3 -3)"/>
</svg>
