<svg xmlns="http://www.w3.org/2000/svg" width="38" height="38.001" viewBox="0 0 38 38.001">
  <defs>
    <style>
      .cls-1 {
        fill: #80e0dd;
        fill-rule: evenodd;
      }
    </style>
  </defs>
  <path id="plane-1" class="cls-1" d="M23.679,31.8a3.963,3.963,0,0,0-1.565,3.851l.553,3.3a4.06,4.06,0,0,1-1.143,3.534L20.312,43.7a1.025,1.025,0,0,1-.153.126.992.992,0,0,1-1.385-.265L15.586,37.11a5.945,5.945,0,0,0-2.7-2.695l-6.452-3.19A1,1,0,0,1,6.3,29.688l1.211-1.212a4.06,4.06,0,0,1,3.534-1.143l3.3.554A3.963,3.963,0,0,0,18.2,26.32l2.631-3.587a.99.99,0,0,0-.311-1.449L7.2,13.744a.99.99,0,0,1-.36-1.36A.972.972,0,0,1,7,12.173l1.715-1.715a4.042,4.042,0,0,1,3.83-1.076l14.685,3.663A3.963,3.963,0,0,0,30.991,12l3.987-3.987A5.945,5.945,0,0,1,38.644,6.3l3.195-.29A1.982,1.982,0,0,1,43.992,8.16l-.29,3.195a5.945,5.945,0,0,1-1.717,3.666L38,19.009a3.963,3.963,0,0,0-1.043,3.761l3.663,14.686a4.042,4.042,0,0,1-1.075,3.83L37.826,43a1.023,1.023,0,0,1-.212.163.99.99,0,0,1-1.36-.36l-7.54-13.324a.99.99,0,0,0-1.447-.31L23.679,31.8Z" transform="translate(-6 -6)"/>
</svg>
