<svg xmlns="http://www.w3.org/2000/svg" width="38" height="38" viewBox="0 0 38 38">
  <defs>
    <style>
      .cls-1 {
        fill: #80e0dd;
        fill-rule: evenodd;
      }
    </style>
  </defs>
  <path id="portfolio" class="cls-1" d="M17,13V8a2,2,0,0,1,2-2H31a2,2,0,0,1,2,2v5h8a3,3,0,0,1,3,3v3.518a3,3,0,0,1-1.836,2.765L27.328,28.53a6,6,0,0,1-4.656,0L7.836,22.283A3,3,0,0,1,6,19.518V16a3,3,0,0,1,3-3Zm4,0h8V10H21ZM32,44H18A10,10,0,0,1,8,34V26.893a.894.894,0,0,1,1.246-.821l13.013,5.543a6.989,6.989,0,0,0,5.482,0l13.013-5.543A.9.9,0,0,1,42,26.893V34A10,10,0,0,1,32,44Z" transform="translate(-6 -6)"/>
</svg>
