<svg xmlns="http://www.w3.org/2000/svg" width="42" height="44" viewBox="0 0 42 44">
  <defs>
    <style>
      .cls-1 {
        fill: #80e0dd;
        fill-rule: evenodd;
      }
    </style>
  </defs>
  <path id="settings-1" class="cls-1" d="M19.09,7.68V5a1.985,1.985,0,0,1,1.97-2h7.88a1.985,1.985,0,0,1,1.97,2V7.68a3.97,3.97,0,0,0,3.94,4,3.9,3.9,0,0,0,1.97-.536L39.1,9.8a1.954,1.954,0,0,1,2.69.732l3.94,6.928a2.015,2.015,0,0,1-.72,2.732l-2.286,1.34A4.033,4.033,0,0,0,41.287,27a3.97,3.97,0,0,0,1.442,1.464l2.286,1.34a2.017,2.017,0,0,1,.72,2.732l-3.94,6.928a1.954,1.954,0,0,1-2.69.732l-2.286-1.34a3.907,3.907,0,0,0-5.381,1.465,4.047,4.047,0,0,0-.528,2V45a1.985,1.985,0,0,1-1.97,2H21.06a1.985,1.985,0,0,1-1.97-2V42.32a3.97,3.97,0,0,0-3.94-4,3.9,3.9,0,0,0-1.97.536L10.9,40.2a1.954,1.954,0,0,1-2.69-.732l-3.94-6.928a2.017,2.017,0,0,1,.72-2.732l2.286-1.34A4.034,4.034,0,0,0,8.713,23a3.97,3.97,0,0,0-1.442-1.464L4.985,20.2a2.017,2.017,0,0,1-.72-2.732L8.2,10.536A1.954,1.954,0,0,1,10.9,9.8l2.286,1.34a3.907,3.907,0,0,0,5.381-1.465,4.047,4.047,0,0,0,.528-2ZM25,33a8,8,0,1,0-8-8A8,8,0,0,0,25,33Z" transform="translate(-4 -3)"/>
</svg>
