<svg xmlns="http://www.w3.org/2000/svg" width="38" height="44" viewBox="0 0 38 44">
  <defs>
    <style>
      .cls-1 {
        fill: #80e0dd;
        fill-rule: evenodd;
      }
    </style>
  </defs>
  <path id="umbrella" class="cls-1" d="M27,6.108C35.715,7.04,44,13.9,44,22v1a2,2,0,0,1-2,2H27V41a6,6,0,0,1-12,0,2,2,0,0,1,4,0,2,2,0,0,0,4,0V25H8a2,2,0,0,1-2-2V22C6,13.9,14.285,7.04,23,6.108V5a2,2,0,1,1,4,0ZM15.2,21a1.571,1.571,0,0,0,1.467-1.182l2.288-7.68a.962.962,0,0,0-.007-.569.753.753,0,0,0-.99-.517,6.2,6.2,0,0,0-.969.494,13.961,13.961,0,0,0-5.74,7.157,8.594,8.594,0,0,0-.247,1.313.966.966,0,0,0-.007.12.822.822,0,0,0,.773.864h3.432Z" transform="translate(-6 -3)"/>
</svg>
