<svg xmlns="http://www.w3.org/2000/svg" width="38" height="38" viewBox="0 0 38 38">
  <defs>
    <style>
      .cls-1 {
        fill: #fff;
        fill-rule: evenodd;
        opacity: 0.9;
      }
    </style>
  </defs>
  <path id="edit-2" class="cls-1" d="M17.389,42.487A5.174,5.174,0,0,1,13.706,44L7.77,43.976A1.756,1.756,0,0,1,6.024,42.23L6,36.294a5.174,5.174,0,0,1,1.513-3.683l25.3-25.469a3.863,3.863,0,0,1,5.464-.021l4.59,4.59a3.863,3.863,0,0,1,0,5.463ZM36.757,18,40,14.857,35.143,10,32,13.243ZM14.586,6.586,21,13l-8,8L6.586,14.586a2,2,0,0,1,0-2.829l5.171-5.171a2,2,0,0,1,2.829,0ZM35.414,43.414,29,37l8-8,6.414,6.414a2,2,0,0,1,0,2.829l-5.171,5.171a2,2,0,0,1-2.829,0Z" transform="translate(-6 -6)"/>
</svg>
