<svg xmlns="http://www.w3.org/2000/svg" width="44" height="40" viewBox="0 0 44 40">
  <defs>
    <style>
      .cls-1 {
        fill: #fff;
        fill-rule: evenodd;
        opacity: 0.9;
      }
    </style>
  </defs>
  <path id="like-1" class="cls-1" d="M25.678,8.48A11.465,11.465,0,0,1,34,5c7.276,0,13,5.947,13,14.316,0,5.02-2.47,9.194-7.032,13.7-.982.97-3.983,3.718-4.118,3.848q-.637.606-1.373,1.255-.954.84-1.936,1.646c-1.4,1.15-2.9,2.308-4.389,3.418q-.993.738-2,1.456a2,2,0,0,1-2.3,0q-1.008-.717-2-1.455-2.235-1.656-4.388-3.419-.982-.806-1.936-1.646-.735-.648-1.373-1.255c-.135-.13-3.136-2.879-4.118-3.848C5.471,28.51,3,24.337,3,19.316,3,10.946,8.724,5,16,5a11.461,11.461,0,0,1,8.322,3.48c.243.243.469.486.678.726.21-.24.435-.483.678-.725ZM15.5,24A5.5,5.5,0,1,0,10,18.5,5.5,5.5,0,0,0,15.5,24Z" transform="translate(-3 -5)"/>
</svg>
