<svg xmlns="http://www.w3.org/2000/svg" width="44" height="40" viewBox="0 0 44 40">
  <defs>
    <style>
      .cls-1 {
        fill: #fff;
        fill-rule: evenodd;
        opacity: 0.9;
      }
    </style>
  </defs>
  <path id="money-1" class="cls-1" d="M7,5H43a4,4,0,0,1,4,4V27a4,4,0,0,1-4,4H7a4,4,0,0,1-4-4V9A4,4,0,0,1,7,5ZM43,22.027V13.973A4.5,4.5,0,0,1,38.027,9H11.973A4.5,4.5,0,0,1,7,13.973v8.054A4.5,4.5,0,0,1,11.973,27H38.027A4.5,4.5,0,0,1,43,22.027ZM9,34H41a2,2,0,0,1,0,4H9a2,2,0,0,1,0-4Zm6,7H35a2,2,0,0,1,0,4H15a2,2,0,0,1,0-4ZM25,24a6,6,0,1,1,6-6,6,6,0,0,1-6,6Z" transform="translate(-3 -5)"/>
</svg>
