<svg xmlns="http://www.w3.org/2000/svg" xmlns:xlink="http://www.w3.org/1999/xlink" viewBox="0 0 46.702 46.702">
  <defs>
    <style>
      .cls-1 {
        fill: url(#linear-gradient);
      }

      .cls-2 {
        clip-path: url(#clip-path);
      }

      .cls-3 {
        fill: #fff;
        fill-rule: evenodd;
        opacity: 0.9;
      }
    </style>
    <linearGradient id="linear-gradient" x1="0.919" y1="1" x2="0.25" y2="0.255" gradientUnits="objectBoundingBox">
      <stop offset="0" stop-color="#17d687"/>
      <stop offset="1" stop-color="#59ee9a"/>
    </linearGradient>
    <clipPath id="clip-path">
      <path id="Path_3" data-name="Path 3" class="cls-1" d="M24.351,47.7a23.523,23.523,0,0,1-4.706-.474A23.216,23.216,0,0,1,11.3,43.715a23.42,23.42,0,0,1-8.46-10.274,23.231,23.231,0,0,1-1.361-4.383,23.581,23.581,0,0,1,0-9.413A23.223,23.223,0,0,1,4.988,11.3a23.42,23.42,0,0,1,10.274-8.46,23.233,23.233,0,0,1,4.383-1.361,23.581,23.581,0,0,1,9.413,0,23.222,23.222,0,0,1,8.35,3.513,23.422,23.422,0,0,1,8.461,10.274,23.232,23.232,0,0,1,1.36,4.383,23.58,23.58,0,0,1,0,9.413,23.215,23.215,0,0,1-3.513,8.35,23.422,23.422,0,0,1-10.274,8.461,23.23,23.23,0,0,1-4.383,1.36A23.522,23.522,0,0,1,24.351,47.7Z" transform="translate(22.002 22.002)"/>
    </clipPath>
  </defs>
  <g id="ic_labtest" transform="translate(-23.002 -23.002)">
    <g id="Mask_Group_2" data-name="Mask Group 2" class="cls-2">
      <path id="route" class="cls-3" d="M24.333,29.68A7.991,7.991,0,0,0,20.3,25.493L7.37,20.645a2.111,2.111,0,0,1,.111-3.991L41.256,6.1A2.112,2.112,0,0,1,43.9,8.744L33.346,42.519a2.11,2.11,0,0,1-3.973.159q-2.527-6.493-5.04-13Z" transform="translate(19.704 24)"/>
    </g>
  </g>
</svg>
