<svg xmlns="http://www.w3.org/2000/svg" viewBox="0 0 32 44">
  <defs>
    <style>
      .cls-1 {
        fill: #fff;
        fill-rule: evenodd;
        opacity: 0.9;
      }
    </style>
  </defs>
  <path id="user-1" class="cls-1" d="M40.952,29.434l-2.167,9.738A10,10,0,0,1,29.024,47H20.976a10,10,0,0,1-9.76-7.827L9.048,29.434a2,2,0,0,1,.79-2.061C14.827,23.809,19.89,22,25,22s10.173,1.809,15.163,5.373a2,2,0,0,1,.79,2.061ZM23.347,3h3.306a6,6,0,0,1,5.98,6.5l-.225,2.685a7.434,7.434,0,0,1-14.816,0L17.368,9.5A6,6,0,0,1,23.348,3Z" transform="translate(-9 -3)"/>
</svg>
