<svg xmlns="http://www.w3.org/2000/svg" width="578.6" height="364.775" viewBox="0 0 578.6 364.775">
  <defs>
    <style>
      .cls-1 {
        fill: none;
        stroke: #d3cfcf;
        stroke-linecap: round;
        stroke-linejoin: round;
        stroke-width: 1.28px;
      }

      .cls-1, .cls-10, .cls-11, .cls-13, .cls-16, .cls-17, .cls-18, .cls-19, .cls-24, .cls-27, .cls-3, .cls-4, .cls-5, .cls-6, .cls-8, .cls-9 {
        fill-rule: evenodd;
      }

      .cls-2 {
        fill: #42b5a1;
      }

      .cls-15, .cls-3 {
        fill: #fec1bc;
      }

      .cls-4 {
        fill: #7e93a3;
      }

      .cls-5 {
        fill: #a5b6c5;
      }

      .cls-6 {
        fill: #8fa5b5;
      }

      .cls-7, .cls-9 {
        fill: #e89f36;
      }

      .cls-8 {
        fill: #fdb947;
      }

      .cls-10 {
        fill: #376bb4;
      }

      .cls-11, .cls-25 {
        fill: #265d9e;
      }

      .cls-12 {
        opacity: 0.55;
      }

      .cls-13, .cls-14 {
        fill: #dda09e;
      }

      .cls-16 {
        fill: #b2423d;
      }

      .cls-17 {
        fill: #912a2a;
      }

      .cls-18, .cls-22 {
        fill: #efc09a;
      }

      .cls-19 {
        fill: #bc845e;
      }

      .cls-20 {
        fill: #9f3a3e;
      }

      .cls-21 {
        fill: #6d332f;
      }

      .cls-23 {
        fill: #636566;
      }

      .cls-24 {
        fill: #ff624d;
      }

      .cls-26 {
        fill: #28435e;
      }

      .cls-27 {
        fill: #ddd;
      }
    </style>
  </defs>
  <g id="referral-step-02-45a75b91858a8c0d6c9f21c491ed6537153fab99bb8764e428486b38745eda7c" transform="translate(-2.64 -0.952)">
    <path id="Path_75" data-name="Path 75" class="cls-1" d="M395.636,101.559S318.79,88.963,340.424,168c13.435,49.22-58.586,90.732-96.007,58.709C175.382,167.589,318.933,110.925,304.5,44.139c-11.656-53.924-86.54-58.934-115.618-1.493-29.405,57.932,6.789,74.822-40.018,104.78S63.24,112.152,63.24,112.152" transform="translate(63.32 0)"/>
    <circle id="Ellipse_8" data-name="Ellipse 8" class="cls-2" cx="7.525" cy="7.525" r="7.525" transform="translate(245.552 36.43)"/>
    <path id="Path_76" data-name="Path 76" class="cls-3" d="M238.613,148.64l-2.74,25.745L202.5,208.371l42.207-19.181,8.875-35.315Z" transform="translate(208.831 153.645)"/>
    <path id="Path_77" data-name="Path 77" class="cls-3" d="M257.42,154.622,274.6,164.11l-4.724,34.743,17.034-38.607L271.448,141.33Z" transform="translate(266.216 146.007)"/>
    <path id="Path_78" data-name="Path 78" class="cls-4" d="M241.253,101.12l-2.413,40.387,31.88,65.027,28.833-21.246-21.942-42.166,28.506-31.859Z" transform="translate(246.802 103.992)"/>
    <path id="Path_79" data-name="Path 79" class="cls-5" d="M263.857,100.637l-34.272,49.241L216.62,208.913l33.393,12.147,18.343-63.207L325.9,98.51Z" transform="translate(223.585 101.265)"/>
    <path id="Path_80" data-name="Path 80" class="cls-6" d="M285.5,98.32l-48.28,65.559s-8.752,42.166-8.486,48.055c.348,7.975,8.629,9.325,8.629,9.325l18.4-63.187,57.543-59.3Z" transform="translate(236.236 101.067)"/>
    <path id="Path_81" data-name="Path 81" class="cls-7" d="M266.066,57.014,234.371,42.7l-.941,17.75s39.078,25.07,42.943,30.878,15.909-9.468,15.909-9.468S277.313,63.926,266.066,57.014Z" transform="translate(241.15 42.95)"/>
    <path id="Path_82" data-name="Path 82" class="cls-8" d="M308.365,54.944a6.727,6.727,0,0,0-3.906-7.014c-4.642-2.045-8.527-1.881-10.633.409s.368,12.126-4.765,15.071-4.621,3.885-12.535,5.828.634,6.728-1.922,6.85a39.753,39.753,0,0,0-15.766,4.376c-1.616.736-7.566,4.54-16.073,13.394-2.658,2.761-9.591,12.494-9.447,13.783.552,4.99,19.754,7.3,19.754,7.3a61.347,61.347,0,0,1,5.848-5.521c1.452,5.214-26.849,55.682-26.849,55.682s82.245,10.347,84.617,8.527c8.65-6.625-5.214-45.54-4.928-64.394,0-6.421-2.658-34.5-2.658-34.5Z" transform="translate(239.729 46.922)"/>
    <path id="Path_83" data-name="Path 83" class="cls-9" d="M285.678,109.68c0-6.5-3.333-34.886-3.333-34.886l-1.063-19.979a6.912,6.912,0,0,0-4.233-7.137c-4.949-2.045-9.059-2.045-11.226.245s.573,12.269-4.806,15.132l-.777.429a7.1,7.1,0,0,1,.123,2.249L256.845,78c1.82-2.986,11.042,31.369.634,60.651-13.108,36.931,33.373,36.808,35.008,35.663C301.546,167.8,285.678,128.7,285.678,109.68Z" transform="translate(263.847 46.58)"/>
    <path id="Path_84" data-name="Path 84" class="cls-10" d="M295.855,56.227c-6.625-8.445-8.793-12.9-17.647-15.316-2.986-.818-10.633-4.581-12.74-4.724a8.711,8.711,0,0,0-8.589,3.7l-1.166,8.425a19.835,19.835,0,0,0-5.46,5.255,33.614,33.614,0,0,0-2.924,7.709l6.441-3.006-.859,6.278-4.335,2.229,15.316,14.56,4.212-2.986a18,18,0,0,0,7.4,15.459c6.769,5.112,10.224,7.873,19.14,5.848,7.239-1.656,6.462,6.135,18.977,2.045s15.5-14.314,7.341-25.07c-6.544-8.691-8.752-5.889-16.6-10.613C297.961,62.177,302.092,64.161,295.855,56.227Z" transform="translate(255.673 36.028)"/>
    <path id="Path_85" data-name="Path 85" class="cls-11" d="M316.055,76.593C309.511,67.9,307.3,70.725,299.45,66c-6.38-3.824-2.27-1.84-8.507-9.8-6.6-8.425-8.793-12.883-17.647-15.3-2.986-.818-10.633-4.581-12.74-4.724a8.67,8.67,0,0,0-8.486,3.8v.286c2.781,1.166,5.91,2.536,7.566,2.986,8.854,2.413,7.423,11.288,14.048,19.733,6.237,7.934,5.726,1.534,12.106,5.378,7.852,4.724,2.168,10.593,8.732,19.283,7.218,9.591,10.92,7.1,4.417,14.764,2.045.736,4.949.961,9.815-.634C321.208,97.615,324.214,87.411,316.055,76.593Z" transform="translate(260.626 36.049)"/>
    <path id="Path_86" data-name="Path 86" class="cls-3" d="M261.223,37.94a9.8,9.8,0,0,0-5.951,2.454c-2.863,2.474-3.763,3.681-6.38,5.992a16.359,16.359,0,0,0-5.644,11.738c-.348,5.828.327,10.674,5.808,12.883s5.951,2.454,8.548,7.075,3.415,5.93,3.415,5.93,5.214,6.135,12.044,3.435c2.638-1.043.511-3.149,0-6.585a21.224,21.224,0,0,1-.389-4.478,12.7,12.7,0,0,1-5.276-.613,19.571,19.571,0,0,1-5.051-3.66c-3.292-2.7-4.315-10.224-4.315-10.224s3.395-3.988,0-5.644a3.354,3.354,0,0,0-4.7,1.738l-1.738,1.268s1.35-5.992,3.906-8.65,3.067-2.536,4.478-4.315a8.875,8.875,0,0,0,1.125-5.869A20.438,20.438,0,0,1,261.223,37.94Z" transform="translate(251.33 37.976)"/>
    <g id="Group_14" data-name="Group 14" class="cls-12" transform="translate(501.899 108.532)">
      <path id="Path_87" data-name="Path 87" class="cls-13" d="M269.979,65.894a23.639,23.639,0,0,1-1.084-6.135,12.617,12.617,0,0,1-8.323-2.638c-.225-.164-3.047-3.026-3.272-3.231a17.87,17.87,0,0,1-3.579,1.288,51.837,51.837,0,0,1-6.932-.2c.7.532,4.09.368,7.3,6.5a64.141,64.141,0,0,0,3.354,5.91,9.488,9.488,0,0,0,10.94,3.66C271.083,70.106,271.165,69.84,269.979,65.894Z" transform="translate(-246.79 -53.89)"/>
    </g>
    <path id="Path_88" data-name="Path 88" class="cls-14" d="M247.548,42.87s-.47.1-1.493,2.045a39.655,39.655,0,0,0-2.045,4.581,3.783,3.783,0,0,1-1-3.129C243.52,44.71,246.812,42.972,247.548,42.87Z" transform="translate(251.12 43.128)"/>
    <path id="Path_89" data-name="Path 89" class="cls-13" d="M248.53,49.835s1.288-2.495,2.413-2.352,2.311.266,2.045,1,.286.961-1.309,1.759a3.292,3.292,0,0,1-3.149-.409Z" transform="translate(256.927 47.942)"/>
    <path id="Path_90" data-name="Path 90" class="cls-15" d="M209.658,34.89s4.662-4.683,12.269.225c6.032,3.865,21.042,7.975,24.191,9.284s24.13,9.754,24.13,9.754l-1.677,14.56a190.863,190.863,0,0,0-20.878-12.965c-7.423-3.435-20.142-8.732-23.169-10.347s-3.272.532-8.364.593c-4.356,0-7.034-4.417-7.034-4.417s-10.408,7.975-8.711,3.885S209.658,34.89,209.658,34.89Z" transform="translate(206.458 32.683)"/>
    <path id="Path_91" data-name="Path 91" class="cls-15" d="M266.717,102.3a53.349,53.349,0,0,1-7.464-1.7c-1.7-.491-5.623-2.168-5.623-2.168s-5.787,6.135-7.423,5.6-11.329-17.484-13.742-21.39,0-5.726-1.493-9.611c-2.045-5.337-6.666-9.263-7.546-9.3s.593,1.718,1.411,4.09.8,3.354-.613,3.374-2.781-3.231-3.067-5.48-.982-6.707-1.022-7.525-1.125-.8-1.718,1.206a27.933,27.933,0,0,0-1.268,8.711c.123,1.6.675,2.413,0,2.045s-1.554-4.805-2.045-4.928-.409.511-.368,2.679a9.2,9.2,0,0,0,2.045,5.48c1.452,2.515,3.5,4.5,5.153,7.627s9.938,19.9,10.961,22.964,7.525,15.746,13.149,16.482S264.632,107.1,266.717,102.3Z" transform="translate(221.583 58.605)"/>
    <path id="Path_92" data-name="Path 92" class="cls-16" d="M281.615,149.26s-6.135,9.959-6.912,15.112-3.313,8.486-6.319,14.519L263.5,189.728s-3.885,12.106-.348,8.957a67.826,67.826,0,0,0,11.595-13.8c2.986-4.887,4.54-10.92,7.382-15.132a73.613,73.613,0,0,0,6.135-12.576Z" transform="translate(270.65 154.293)"/>
    <path id="Path_93" data-name="Path 93" class="cls-17" d="M272.2,162.976l2.372,2.72s4.09-3.906,4.417-6.135a17.691,17.691,0,0,0-.184-4.928l-1.575-1.513Z" transform="translate(281.66 158.326)"/>
    <path id="Path_94" data-name="Path 94" class="cls-16" d="M247.284,166.2s-10.9,4.09-14.744,7.627-9.222,3.538-15.3,6.421l-11.124,6.257s-8.568,7.525-3.844,7.218A67.481,67.481,0,0,0,219.923,190c5.358-2.045,10.224-5.787,15.132-7.362a74.659,74.659,0,0,0,12.576-6.135l.8-4.294Z" transform="translate(207.112 171.994)"/>
    <path id="Path_95" data-name="Path 95" class="cls-17" d="M218.82,175.851l.2,3.6s5.623-.573,7.239-2.045a16.892,16.892,0,0,0,2.9-3.967l-.307-2.168Z" transform="translate(225.884 177.291)"/>
    <path id="Path_96" data-name="Path 96" class="cls-18" d="M77.87,153.891S68.934,176.385,70.2,178.9,90.9,195.259,90.9,195.259L57.38,191.7l5.358-38.321Z" transform="translate(57.197 158.598)"/>
    <path id="Path_97" data-name="Path 97" class="cls-18" d="M39.758,149.659,22.07,164.321l14.764,31.757L6.59,164.628,24.462,140.58Z" transform="translate(4.127 145.224)"/>
    <path id="Path_98" data-name="Path 98" class="cls-14" d="M77.365,36.12a19.3,19.3,0,0,1,2.781,4.621c.143,1.227.8,3.885.184,4.662s-4.09,1.145-4.09,1.145Z" transform="translate(76.904 36.075)"/>
    <path id="Path_99" data-name="Path 99" class="cls-19" d="M85.011,49.369s-3.067,10.347-4.99,11.881-7.668,10.736-7.668,10.736S55.79,68.2,55.79,63.99s9.652-21.533,12.269-24.539S85.011,49.369,85.011,49.369Z" transform="translate(55.536 39.082)"/>
    <path id="Path_100" data-name="Path 100" class="cls-18" d="M97.145,41.549s.143,9.815-1.288,13.23-.123,8.65-4.417,12.269-8.18,6.135-14.314,4.458A13.271,13.271,0,0,1,66.9,62.468c-1.718-4.274-10.224-11.7-6.85-21.124s17.075-18.2,24.027-15.93A18,18,0,0,1,97.145,41.549Z" transform="translate(59.169 24.511)"/>
    <path id="Path_101" data-name="Path 101" class="cls-20" d="M100.078,35.779a23.5,23.5,0,0,1-6.135,7.587c-3.926,2.945-3.926,12.269-8.834,12.269-1.084,0-3.026.47-3.579-.245-1.615-2.045-3.7-2.965-5.235-1.431a8.548,8.548,0,0,0-1.472,6.135A20.877,20.877,0,0,0,76.3,64.387c1.534,4.867-14.764-1.472-14.764-1.472s-3.722-4.253-3.722-13.7S63.8,22.63,63.8,22.63L93.309,28.4Z" transform="translate(57.646 21.979)"/>
    <path id="Path_102" data-name="Path 102" class="cls-21" d="M78.965,53.374a33.4,33.4,0,0,1-3.251-4.09c-5.112-7.771-8.589-25.95-8.589-25.95l-3.374-.675S57.78,39.653,57.78,49.1s3.783,13.967,3.783,13.967,16.216,6.278,14.744,1.411A22,22,0,0,1,74.9,60.184a8.957,8.957,0,0,1,1.411-6.135A2.249,2.249,0,0,1,78.965,53.374Z" transform="translate(57.615 22.01)"/>
    <path id="Path_103" data-name="Path 103" class="cls-22" d="M107.64,47.4l6.012-8.957s.327-5.378,1-9.406,1.206-7.178,2.372-7.178.716,7.034.716,7.034,1.534-6.871,6.3-7.566a34.5,34.5,0,0,1,8.568,0c1.84.143,8.589,3.19,8.364,3.783-.941,2.515-12.269-1.82-14.314,2.8-1.084,2.556-1.6,6.339,0,7.587,3.374,2.515,8.425-7.137,9.263-6.973s3.006,4.56-.818,9.754c-2.045,2.658-3.395,5.3-7.28,6.135a10.224,10.224,0,0,0-7.75,4.642,55.642,55.642,0,0,1-4.376,5.583Z" transform="translate(109.713 20.338)"/>
    <path id="Path_104" data-name="Path 104" class="cls-22" d="M45.822,89.588,39.81,98.524s-.327,5.4-1,9.427-1.186,7.178-2.372,7.178-.818-11.676-.818-11.676a30.244,30.244,0,0,1-7.464,9.856,12.065,12.065,0,0,1-7.566,2.883c-1.861-.164-7.566.675-4.928-2.638,1.656-2.045,2.863-4.356,8.18-11.124,1.7-2.188,7.566-11.656,9.427-14.457a57.049,57.049,0,0,1,4.4-5.583Z" transform="translate(12.889 84.422)"/>
    <path id="Path_105" data-name="Path 105" class="cls-23" d="M116.114,101.413l15.173,71.612L121.779,241l-19.038-2.352-1.472-61.285L89.347,148.425,68.428,177.871,31.558,207.563l-19.058-8.3,33.741-34.538L74.971,88.06Z" transform="translate(10.303 90.346)"/>
    <path id="Path_106" data-name="Path 106" class="cls-24" d="M195.355,31s-12.719,24.539-31.573,33.761c-17.32,8.466-23.843,10.224-35.356,8.732a141.471,141.471,0,0,1-15.7-2.679l-15.7-.368s-22.494-4.662-35.581,1.861-26.706,30.735-26.706,30.735L21.56,144.062l17.586,2.045,15.725-30.2,6.012-16.809,1.738,64.823,48.668,1.472,16.932-61.019s22.494.164,45.233-17.382c28.056-21.574,36.5-41.859,36.5-41.859Z" transform="translate(19.769 30.725)"/>
    <path id="Path_107" data-name="Path 107" class="cls-25" d="M57.522,166.67s.409,4.846,7.014,6.135c7.73,1.431,10.224.716,11.472-1.1s-1.493-3.129,0-3.006c2.822.266,13.844,5.542,16.564,7.259,5.705,3.6,7.239,6.707,6.994,9.018s-31.021-2.822-31.021-2.822S56.766,181.9,56.5,178.305a72.9,72.9,0,0,1,1.022-11.635Z" transform="translate(56.278 172.485)"/>
    <path id="Path_108" data-name="Path 108" class="cls-26" d="M59.433,165.964l-.654,5.03s-.757-.818-1.166-1.329A4.09,4.09,0,0,1,57,167.477a1.6,1.6,0,0,1,1.063-1.493,3.088,3.088,0,0,1,1.37-.02Z" transform="translate(56.8 171.677)"/>
    <path id="Path_109" data-name="Path 109" class="cls-27" d="M56.716,171.94,56,177.4a18.936,18.936,0,0,0,8.589,4.335c4.805.777,29.467,2.577,32.146,2.577h2.679l.552-4.928S84.915,179.1,78,177.993s-15.4-2.045-17.5-3.231S56.613,172.39,56.716,171.94Z" transform="translate(55.755 177.991)"/>
    <path id="Path_110" data-name="Path 110" class="cls-25" d="M10.866,149.25s-2.045,4.417,3.129,8.711c6.032,5.03,8.507,5.6,10.552,4.662,1.718-.8.225-3.456,1.391-2.638,2.331,1.6,9.345,11.615,10.858,14.437,3.21,5.951,3.026,9.406,1.656,11.288s-25.622-17.688-25.622-17.688S2.6,162.01,4.241,158.759a70.772,70.772,0,0,1,6.625-9.509Z" transform="translate(1.487 154.283)"/>
    <path id="Path_111" data-name="Path 111" class="cls-26" d="M10.528,149.514,7.5,153.6s-.266-1.1-.368-1.738a3.865,3.865,0,0,1,.532-2.188,1.615,1.615,0,0,1,1.656-.8,3.007,3.007,0,0,1,1.206.634Z" transform="translate(4.688 153.876)"/>
    <path id="Path_112" data-name="Path 112" class="cls-27" d="M5.912,153.51,2.64,157.927a18.567,18.567,0,0,0,5.358,8c3.783,3.047,24.4,16.748,26.727,18.056l2.331,1.309,2.883-4.09s-12.965-7.627-18.4-11.983-12.269-9.427-13.66-11.431S5.585,153.858,5.912,153.51Z" transform="translate(0 158.734)"/>
    <path id="Path_113" data-name="Path 113" class="cls-14" d="M71.084,41.046s-1.37-3.926-3.19-2.045.736,4.458.736,4.458l1,2.045A5.6,5.6,0,0,0,71.084,41.046Z" transform="translate(67.5 38.551)"/>
    <circle id="Ellipse_9" data-name="Ellipse 9" class="cls-2" cx="8.67" cy="8.67" r="8.67" transform="translate(446.892 92.357)"/>
    <circle id="Ellipse_10" data-name="Ellipse 10" class="cls-2" cx="9.345" cy="9.345" r="9.345" transform="translate(168.889 142.375)"/>
    <circle id="Ellipse_11" data-name="Ellipse 11" class="cls-2" cx="7.525" cy="7.525" r="7.525" transform="translate(358.123 56.919)"/>
  </g>
</svg>
