<svg xmlns="http://www.w3.org/2000/svg" width="40.295" height="43.03" viewBox="0 0 40.295 43.03">
  <defs>
    <style>
      .cls-1 {
        fill: #ef7f65;
        opacity: 0.553;
      }
    </style>
  </defs>
  <path id="arrow-down" class="cls-1" d="M990.887,1392.993l15.079,14.813a6.591,6.591,0,0,0,9.192,0l15.112-14.847a1.454,1.454,0,0,0,0-2.083,1.518,1.518,0,0,0-2.121,0l-15.366,14.846c-.285.28-1.209.487-1.209.65v-38.256a1.5,1.5,0,0,0-3,0v38.276c0-.165-.445-.38-.741-.67l-14.951-14.813a1.443,1.443,0,1,0-1.995,2.084Z" transform="translate(-990.415 -1366.643)"/>
</svg>
