<svg xmlns="http://www.w3.org/2000/svg" width="14.956" height="15.043" viewBox="0 0 14.956 15.043">
  <defs>
    <style>
      .cls-1 {
        mix-blend-mode: multiply;
        isolation: isolate;
      }

      .cls-2 {
        fill: #3151aa;
      }

      .cls-3 {
        fill: #fcf5ff;
      }

      .cls-4 {
        fill: #f42525;
      }

      .cls-5 {
        fill: #fff;
      }

      .cls-6 {
        fill: #cd002a;
      }
    </style>
  </defs>
  <g id="flag-eng" class="cls-1">
    <g id="Group_2976" data-name="Group 2976" transform="translate(0 0)">
      <g id="Group_2975" data-name="Group 2975">
        <path id="Path_9240" data-name="Path 9240" class="cls-2" d="M312.223,150.314v.038c0,.063,0,.128,0,.193v.035c0,.062,0,.119-.006.18s-.007.124-.012.191c-.012.19-.032.379-.059.566-.038.255-.087.506-.149.755-.049.184-.1.37-.164.549-.005.018-.009.034-.015.052a.1.1,0,0,0,0,.012c-.017.05-.037.1-.056.149s-.043.126-.067.186a.728.728,0,0,0-.03.071,6.98,6.98,0,0,1-.573,1.111,7.2,7.2,0,0,1-.525.741c-.107.13-.214.253-.326.375a7.465,7.465,0,0,1-3.537,2.142,7.009,7.009,0,0,1-.74.159.014.014,0,0,1-.009,0,7.4,7.4,0,0,1-1.2.1,7.536,7.536,0,0,1-1.514-.153.051.051,0,0,0-.019,0,7.2,7.2,0,0,1-.742-.2c-.21-.068-.416-.142-.616-.226-.065-.026-.128-.055-.192-.083a7.454,7.454,0,0,1-2.4-1.731c-.071-.073-.136-.149-.2-.226a7.265,7.265,0,0,1-.611-.823,7.512,7.512,0,0,1-.444-.788c-.071-.149-.137-.3-.2-.455-.026-.066-.052-.132-.078-.2,0,0,0,0,0,0a1.512,1.512,0,0,1-.051-.147.049.049,0,0,1,0-.012.4.4,0,0,1-.017-.052c-.061-.179-.116-.364-.163-.549a7.471,7.471,0,0,1-.15-.755c-.026-.17-.044-.346-.056-.521,0-.061-.007-.12-.011-.179,0-.079-.007-.158-.009-.236v-.035c0-.065,0-.13,0-.193v-.038c0-.021,0-.047,0-.068v-.053c0-.043,0-.087,0-.132,0-.015,0-.029,0-.045,0-.1.011-.2.019-.294v-.014a.262.262,0,0,1,0-.043c.009-.1.021-.2.034-.292a.264.264,0,0,1,.007-.053c.011-.08.022-.156.035-.233.019-.1.032-.193.056-.287,0,0,0-.006,0-.009.022-.1.043-.2.069-.288a.151.151,0,0,1,.009-.034c.016-.066.034-.13.053-.2s.031-.11.048-.165c.005-.022.014-.041.019-.062.029-.092.063-.184.1-.273a.73.73,0,0,1,.03-.079.118.118,0,0,1,.009-.027c.018-.047.036-.093.054-.14a.071.071,0,0,0,.008-.013c.021-.059.048-.117.074-.173a1.185,1.185,0,0,1,.051-.108,7,7,0,0,1,.425-.8,7.3,7.3,0,0,1,.795-1.061s0,0,0-.007a7.433,7.433,0,0,1,2.489-1.825c.039-.019.077-.037.115-.053a7.085,7.085,0,0,1,.692-.26,7.548,7.548,0,0,1,.742-.2.085.085,0,0,1,.019,0,7.534,7.534,0,0,1,2.716-.056.021.021,0,0,1,.009,0,6.2,6.2,0,0,1,.74.16,7.459,7.459,0,0,1,3.635,2.249c.112.123.215.249.317.38a7.485,7.485,0,0,1,.511.748c.113.185.216.376.311.572.068.14.133.284.189.432,0,0,0,.009.006.013.021.047.038.093.054.14a.288.288,0,0,1,.016.041c.008.022.015.043.025.065.032.089.062.18.094.273.049.153.1.309.136.468.011.048.022.094.033.139s.023.1.031.146c.021.088.037.176.053.265.008.046.014.092.023.14.012.071.021.141.03.212s.019.163.028.246c.009.106.016.216.02.324a.546.546,0,0,1,0,.075c0,.045,0,.088.006.132v.053A.41.41,0,0,1,312.223,150.314Z" transform="translate(-297.267 -142.874)"/>
      </g>
    </g>
    <g id="Group_2981" data-name="Group 2981" transform="translate(0.488 2.499)">
      <g id="Group_2978" data-name="Group 2978">
        <g id="Group_2977" data-name="Group 2977">
          <path id="Path_9241" data-name="Path 9241" class="cls-3" d="M313.458,162.282c-.011.023-.02.047-.03.071a7.123,7.123,0,0,1-.572,1.111,7.428,7.428,0,0,1-.525.741c-.107.13-.213.254-.327.375l-.03-.021-.022-.013-.095-.061-.117-.073-.047-.031-.187-.117-.022-.013-.206-.129-2.8-1.758-.008-.006-.741-.46-.008-.007-.891-.557-.3-.188-.906-.567-.336-.214-.284-.176-.008,0-.012-.008-.55-.344-.185-.118-.276-.174-2.678-1.68-1.177-.736-.028-.018-.046-.03-.009-.005L299.9,157l-.205-.13-.084-.052-.064-.04-.018-.013-.009,0a.1.1,0,0,1,.009-.027l.054-.14a.092.092,0,0,1,.007-.013c.021-.059.047-.117.074-.173a.946.946,0,0,1,.05-.108,6.661,6.661,0,0,1,.427-.8,7.218,7.218,0,0,1,.794-1.062l.018.01.03.02.013.008.144.092.2.123v0l.093.056v0l.016.009.037.022.164.1,1.2.758.328.2.094.059.958.6.006,0,.736.462.019.013.2.126,1.2.754.119.076.462.29.723.45,0,0,.008,0,.116.075.632.394.615.385,1.653,1.037,1.2.755.841.526.178.112.014.008.161.1.1.062.06.037.126.083.014.006Z" transform="translate(-299.524 -154.435)"/>
        </g>
      </g>
      <g id="Group_2980" data-name="Group 2980" transform="translate(0.194 1.062)">
        <g id="Group_2979" data-name="Group 2979">
          <path id="Path_9242" data-name="Path 9242" class="cls-4" d="M313.56,167.316a7.428,7.428,0,0,1-.525.741l-.03-.019-.02-.012-.1-.065-.107-.066-.054-.034-.181-.113-.021-.013-.2-.126-3.145-1.972-.008-.006-.716-.446-.025-.015-.008-.006,0,0-.723-.449-.441-.28-.8-.5-.746-.463-.008,0-.012-.008-.086-.056-.464-.293-.185-.112-2.03-1.275-1.2-.754-.322-.2,0,0-.215-.134-.18-.115-.065-.039-.012-.007-.12-.077-.2-.126-.094-.059-.052-.034-.019-.011-.012-.008a6.661,6.661,0,0,1,.427-.8l.015.009.023.016.039.021.113.071.2.123.027.018.081.048.016.012.049.033.057.034.068.042.544.341.467.294.086.053.789.5,1.2.754.328.2.736.461.012.008.008,0,.284.177.462.291.853.534,1.112.7,0,0,.008.007.116.072.409.257.223.139.98.616,2.716,1.7.188.118.018.012.171.107.07.046.087.054.109.069.018.01Z" transform="translate(-300.423 -159.349)"/>
        </g>
      </g>
    </g>
    <g id="Group_2986" data-name="Group 2986" transform="translate(0.542 2.508)">
      <g id="Group_2983" data-name="Group 2983">
        <g id="Group_2982" data-name="Group 2982">
          <path id="Path_9243" data-name="Path 9243" class="cls-3" d="M313.7,156.8l-.008,0-.017.012-.094.058-.08.052-.161.1-.1.066-.01.007-.064.041-.036.023-.855.537-.081.051h0l-.228.143-2.68,1.68-.615.385-.632.395-.117.075-.008,0-.005,0-.277.175-.445.28-.462.287-.3.188-1.229.769-.019.012-.736.462-.006,0-2.465,1.544-.185.116-.021.013-.2.128-.084.052-.115.074-.077.048-.021.013-.031.018c-.071-.073-.137-.149-.2-.226a7.647,7.647,0,0,1-1.054-1.612c-.072-.147-.138-.3-.2-.454l.017-.012.011-.007.107-.067.052-.032.151-.093.182-.118.011-.006.148-.093.856-.536,1.2-.755,1.655-1.037.276-.176.185-.117.551-.345.012-.007.008,0,.284-.175,1.243-.779.121-.076,1.063-.667.005,0,.008,0,.129-.078.612-.384.008-.006,1.514-.949.086-.053.24-.153,1.243-.779.057-.035.023-.014.076-.048.077-.047.01-.007.076-.048.139-.086,0,0,.034-.021.034-.019.019-.014c.111.123.215.249.317.381a7.132,7.132,0,0,1,.51.748c.114.185.217.377.313.572.067.14.132.284.189.432l.007.013c.02.047.037.093.053.14C313.694,156.775,313.7,156.789,313.7,156.8Z" transform="translate(-299.774 -154.477)"/>
        </g>
      </g>
      <g id="Group_2985" data-name="Group 2985" transform="translate(0.2 0.381)">
        <g id="Group_2984" data-name="Group 2984">
          <path id="Path_9244" data-name="Path 9244" class="cls-4" d="M313.85,156.986l-.016.01-.023.014-.062.039-.11.067-.155.1-.009.006-.077.048-.019.009-.05.034h0l-.027.016-.41.259,0,0-.761.474-.193.122-.062.037-.473.3-1.2.754-.8.506-.632.4-.116.073-.008,0,0,0-1.112.7-.853.532-.462.291-.284.176-.008,0-.012.011-.038.022-.7.439-.507.316-2.818,1.768-.166.105-.014.007-.191.122-.114.07-.084.053-.089.057-.015.009-.025.015a7.363,7.363,0,0,1-.444-.789l.019-.011.014-.009.1-.061.064-.043.136-.086.183-.113.013-.009.155-.1,1.575-.987,1.2-.755,1.006-.632.185-.113.464-.292.086-.056.012-.008.008,0,.746-.466,1.243-.78.582-.366.14-.088,0,0,.008-.007.748-.467.3-.188,1.575-.99.077-.046.217-.136,1.228-.772.065-.038.016-.011.083-.051.084-.055.031-.019.046-.027.065-.04.06-.04.045-.026h0l.03-.021.018-.011A7.127,7.127,0,0,1,313.85,156.986Z" transform="translate(-300.7 -156.238)"/>
        </g>
      </g>
    </g>
    <g id="Group_2988" data-name="Group 2988" transform="translate(0 5.172)">
      <g id="Group_2987" data-name="Group 2987">
        <path id="Path_9245" data-name="Path 9245" class="cls-5" d="M312.222,169.074v.038c0,.064,0,.128,0,.192v.037c0,.061,0,.118-.006.179s-.007.125-.011.191c-.012.191-.033.379-.06.566a7.694,7.694,0,0,1-.149.755h-14.5c-.062-.249-.112-.5-.15-.755-.025-.17-.044-.346-.054-.521,0-.061-.008-.119-.012-.178,0-.081-.007-.157-.009-.237V169.3c0-.064,0-.128,0-.192v-.038c0-.02,0-.047,0-.068v-.053c0-.043,0-.087,0-.132,0-.014,0-.029,0-.045,0-.1.013-.2.019-.294v-.014c0-.013,0-.028,0-.043.01-.1.021-.195.034-.292a.266.266,0,0,1,.007-.052c.01-.079.022-.156.035-.232.017-.1.032-.195.055-.288,0,0,0-.006,0-.009.022-.1.043-.194.069-.289,0-.011.006-.023.008-.032.016-.067.035-.131.053-.2s.031-.111.048-.166c.005-.02.014-.04.019-.061h14.227c.051.153.1.31.136.468.011.048.024.094.033.139s.023.1.031.146c.022.088.037.176.053.265.007.045.014.092.023.138.012.071.021.142.03.212s.019.164.027.247c.009.107.017.216.021.324a.618.618,0,0,1,0,.075c0,.045,0,.087.006.132v.053A.611.611,0,0,1,312.222,169.074Z" transform="translate(-297.267 -166.806)"/>
      </g>
    </g>
    <g id="Group_2990" data-name="Group 2990" transform="translate(0 5.926)">
      <g id="Group_2989" data-name="Group 2989">
        <path id="Path_9246" data-name="Path 9246" class="cls-4" d="M312.222,171.809v.038c0,.064,0,.128,0,.192v.037c0,.061,0,.118-.006.179s-.007.125-.011.191c-.012.191-.033.379-.06.566h-14.8c-.025-.17-.044-.346-.054-.521,0-.061-.008-.119-.012-.178,0-.081-.007-.157-.009-.237v-.037c0-.064,0-.128,0-.192v-.038c0-.02,0-.047,0-.068v-.053c0-.043,0-.087,0-.132,0-.014,0-.029,0-.045,0-.1.013-.2.019-.294V171.2c0-.013,0-.028,0-.043.01-.1.021-.195.034-.292a.266.266,0,0,1,.007-.052c.01-.079.022-.156.035-.232.017-.1.032-.195.055-.288h14.627c.022.088.037.176.053.265.007.045.014.092.023.138.012.071.021.142.03.212s.019.164.027.247c.009.107.017.216.021.324a.618.618,0,0,1,0,.075c0,.045,0,.087.006.132v.053A.611.611,0,0,1,312.222,171.809Z" transform="translate(-297.267 -170.295)"/>
      </g>
    </g>
    <g id="Group_2992" data-name="Group 2992" transform="translate(5.965 0)">
      <g id="Group_2991" data-name="Group 2991">
        <path id="Path_9247" data-name="Path 9247" class="cls-6" d="M327.581,142.971V157.82a7.4,7.4,0,0,1-1.2.1,7.536,7.536,0,0,1-1.514-.153V143.027a7.534,7.534,0,0,1,2.716-.056Z" transform="translate(-324.865 -142.874)"/>
      </g>
    </g>
    <g id="Group_2997" data-name="Group 2997" transform="translate(5.203 0)">
      <g id="Group_2994" data-name="Group 2994">
        <g id="Group_2993" data-name="Group 2993">
          <path id="Path_9248" data-name="Path 9248" class="cls-5" d="M325.568,143.132v4.914h-.753v4.226h.753v5.387a7.01,7.01,0,0,1-.74.159.015.015,0,0,1-.009,0,7.4,7.4,0,0,1-1.2.1,7.536,7.536,0,0,1-1.514-.153.051.051,0,0,0-.019,0,7.2,7.2,0,0,1-.742-.2v-5.293h.754v-4.226h-.754v-4.819a7.548,7.548,0,0,1,.742-.2.086.086,0,0,1,.019,0,7.534,7.534,0,0,1,2.716-.056.021.021,0,0,1,.009,0A6.2,6.2,0,0,1,325.568,143.132Z" transform="translate(-321.342 -142.874)"/>
        </g>
      </g>
      <g id="Group_2996" data-name="Group 2996" transform="translate(0.742)">
        <g id="Group_2995" data-name="Group 2995">
          <path id="Path_9249" data-name="Path 9249" class="cls-4" d="M327.519,142.973v14.846a.014.014,0,0,1-.009,0,7.4,7.4,0,0,1-1.2.1,7.536,7.536,0,0,1-1.514-.153.051.051,0,0,0-.019,0v-14.73a.086.086,0,0,1,.019,0,7.534,7.534,0,0,1,2.716-.056A.021.021,0,0,1,327.519,142.973Z" transform="translate(-324.775 -142.874)"/>
        </g>
      </g>
    </g>
  </g>
</svg>
