<svg xmlns="http://www.w3.org/2000/svg" xmlns:xlink="http://www.w3.org/1999/xlink" width="54.281" height="54.281" viewBox="0 0 54.281 54.281">
  <defs>
    <style>
      .cls-1, .cls-3 {
        fill: #fff;
      }

      .cls-2 {
        fill: url(#linear-gradient);
      }

      .cls-3 {
        fill-rule: evenodd;
      }
    </style>
    <linearGradient id="linear-gradient" x1="0.919" y1="1" x2="0.25" y2="0.255" gradientUnits="objectBoundingBox">
      <stop offset="0" stop-color="#3b5c91"/>
      <stop offset="1" stop-color="#15354b"/>
    </linearGradient>
  </defs>
  <g id="Group_3053" data-name="Group 3053" transform="translate(-22.508)">
    <path id="Path_111" data-name="Path 111" class="cls-1" d="M27.14,0A27.14,27.14,0,1,1,0,27.14,27.14,27.14,0,0,1,27.14,0Z" transform="translate(22.508)"/>
    <g id="Path_110" data-name="Path 110" transform="translate(30.455 7.947)">
      <path id="Path_3" data-name="Path 3" class="cls-2" d="M19.041,38.081a19.18,19.18,0,0,1-3.838-.387,18.93,18.93,0,0,1-6.808-2.865,19.1,19.1,0,0,1-6.9-8.377A18.942,18.942,0,0,1,.387,22.878a19.228,19.228,0,0,1,0-7.675A18.936,18.936,0,0,1,3.252,8.395a19.1,19.1,0,0,1,8.377-6.9A18.944,18.944,0,0,1,15.2.387a19.228,19.228,0,0,1,7.675,0,18.935,18.935,0,0,1,6.808,2.865,19.1,19.1,0,0,1,6.9,8.377A18.943,18.943,0,0,1,37.694,15.2a19.227,19.227,0,0,1,0,7.675,18.929,18.929,0,0,1-2.865,6.808,19.1,19.1,0,0,1-8.377,6.9,18.941,18.941,0,0,1-3.574,1.109A19.18,19.18,0,0,1,19.041,38.081Z" transform="translate(0.153 0.153)"/>
      <path id="Path_4" data-name="Path 4" class="cls-1" d="M19.194.307a19.027,19.027,0,0,0-3.807.384A18.782,18.782,0,0,0,8.634,3.532a18.943,18.943,0,0,0-6.843,8.31,18.789,18.789,0,0,0-1.1,3.545A19.074,19.074,0,0,0,.691,23a18.783,18.783,0,0,0,2.842,6.753,18.943,18.943,0,0,0,8.31,6.843,18.8,18.8,0,0,0,3.545,1.1A19.079,19.079,0,0,0,23,37.7a18.782,18.782,0,0,0,6.753-2.842,18.943,18.943,0,0,0,6.843-8.31A18.793,18.793,0,0,0,37.7,23a19.079,19.079,0,0,0,0-7.613,18.781,18.781,0,0,0-2.842-6.753,18.944,18.944,0,0,0-8.31-6.843A18.791,18.791,0,0,0,23,.691,19.029,19.029,0,0,0,19.194.307m0-.307A19.194,19.194,0,1,1,0,19.194,19.194,19.194,0,0,1,19.194,0Z"/>
    </g>
    <path id="route" class="cls-3" d="M9.35,10.183a3.721,3.721,0,0,0-1.879-1.95L.638,6.819A.983.983,0,0,1,.69,4.961L16.416.046a.983.983,0,0,1,1.232,1.232L12.733,17a.982.982,0,0,1-1.85.074C10.1,15.062,10.13,12.2,9.35,10.185Z" transform="matrix(0.695, 0.719, -0.719, 0.695, 47.731, 14.425)"/>
  </g>
</svg>
