<svg xmlns="http://www.w3.org/2000/svg" xmlns:xlink="http://www.w3.org/1999/xlink" width="92.704" height="92.704" viewBox="0 0 92.704 92.704">
  <defs>
    <style>
      .cls-1, .cls-3 {
        fill: #fff;
      }

      .cls-2 {
        fill: url(#linear-gradient);
      }

      .cls-3 {
        fill-rule: evenodd;
        opacity: 0.9;
      }
    </style>
    <linearGradient id="linear-gradient" x1="0.2" y1="0.111" x2="0.841" y2="0.856" gradientUnits="objectBoundingBox">
      <stop offset="0" stop-color="#ffc45e"/>
      <stop offset="0.367" stop-color="#ffc45e"/>
      <stop offset="1" stop-color="#fd9d38"/>
    </linearGradient>
  </defs>
  <g id="m_icon_6" transform="translate(444.002 -756.121)">
    <ellipse id="Ellipse_16" data-name="Ellipse 16" class="cls-1" cx="46.352" cy="46.352" rx="46.352" ry="46.352" transform="translate(-444.002 756.121)"/>
    <path id="Path_5" data-name="Path 5" class="cls-2" d="M33.519,66.037a32.776,32.776,0,0,1-6.554-.661,32.337,32.337,0,0,1-11.627-4.893A32.614,32.614,0,0,1,3.555,46.176a32.351,32.351,0,0,1-1.895-6.1,32.838,32.838,0,0,1,0-13.108A32.34,32.34,0,0,1,6.553,15.337,32.614,32.614,0,0,1,20.861,3.555a32.354,32.354,0,0,1,6.1-1.895,32.838,32.838,0,0,1,13.108,0A32.338,32.338,0,0,1,51.7,6.553,32.618,32.618,0,0,1,63.482,20.861a32.352,32.352,0,0,1,1.894,6.1,32.838,32.838,0,0,1,0,13.108A32.328,32.328,0,0,1,60.483,51.7,32.617,32.617,0,0,1,46.176,63.482a32.369,32.369,0,0,1-6.1,1.895A32.776,32.776,0,0,1,33.519,66.037Z" transform="translate(-431.168 768.953)"/>
    <path id="Path_6" data-name="Path 6" class="cls-1" d="M32.781.524a32.5,32.5,0,0,0-6.5.655A32.076,32.076,0,0,0,14.746,6.033,32.352,32.352,0,0,0,3.059,20.225a32.09,32.09,0,0,0-1.879,6.054,32.576,32.576,0,0,0,0,13A32.078,32.078,0,0,0,6.033,50.815,32.352,32.352,0,0,0,20.225,62.5a32.1,32.1,0,0,0,6.054,1.879,32.572,32.572,0,0,0,13,0,32.077,32.077,0,0,0,11.533-4.853A32.353,32.353,0,0,0,62.5,45.336a32.1,32.1,0,0,0,1.879-6.054,32.585,32.585,0,0,0,0-13,32.075,32.075,0,0,0-4.853-11.533A32.353,32.353,0,0,0,45.336,3.059a32.086,32.086,0,0,0-6.054-1.879,32.5,32.5,0,0,0-6.5-.655m0-.524A32.781,32.781,0,1,1,0,32.781,32.78,32.78,0,0,1,32.781,0Z" transform="translate(-430.43 769.691)"/>
    <path id="user-1" class="cls-3" d="M40.952,29.434l-2.167,9.738A10,10,0,0,1,29.024,47H20.976a10,10,0,0,1-9.76-7.827L9.048,29.434a2,2,0,0,1,.79-2.061C14.827,23.809,19.89,22,25,22s10.173,1.809,15.163,5.373a2,2,0,0,1,.79,2.061ZM23.347,3h3.306a6,6,0,0,1,5.98,6.5l-.225,2.685a7.434,7.434,0,0,1-14.816,0L17.368,9.5A6,6,0,0,1,23.348,3Z" transform="translate(-422 777)"/>
  </g>
</svg>
