<svg xmlns="http://www.w3.org/2000/svg" xmlns:xlink="http://www.w3.org/1999/xlink" width="155.561" height="155.561" viewBox="0 0 155.561 155.561">
  <defs>
    <style>
      .cls-1, .cls-3 {
        fill: #fff;
      }

      .cls-2 {
        fill: url(#linear-gradient);
      }

      .cls-3 {
        fill-rule: evenodd;
        opacity: 0.9;
      }

      .cls-4 {
        filter: url(#Ellipse_17);
      }
    </style>
    <linearGradient id="linear-gradient" x1="1" y1="1" x2="0.3" y2="0.297" gradientUnits="objectBoundingBox">
      <stop offset="0" stop-color="#8ad8ff"/>
      <stop offset="1" stop-color="#5cc8ff"/>
    </linearGradient>
    <filter id="Ellipse_17" x="0" y="0" width="155.561" height="155.561" filterUnits="userSpaceOnUse">
      <feOffset dy="3" input="SourceAlpha"/>
      <feGaussianBlur stdDeviation="15" result="blur"/>
      <feFlood flood-color="#00a9ff" flood-opacity="0.302"/>
      <feComposite operator="in" in2="blur"/>
      <feComposite in="SourceGraphic"/>
    </filter>
  </defs>
  <g id="m_icon_7" transform="translate(322.132 -727.691)">
    <path id="Path_112" data-name="Path 112" class="cls-1" d="M46.352,0A46.352,46.352,0,1,1,0,46.352,46.352,46.352,0,0,1,46.352,0Z" transform="translate(-290.704 756.121)"/>
    <g class="cls-4" transform="matrix(1, 0, 0, 1, -322.13, 727.69)">
      <ellipse id="Ellipse_17-2" data-name="Ellipse 17" class="cls-2" cx="32.781" cy="32.781" rx="32.781" ry="32.781" transform="translate(45 42)"/>
    </g>
    <path id="notifications-2" class="cls-3" d="M25,3a6,6,0,0,1,5.975,5.452A13,13,0,0,1,38,20c0,2.895,1.377,9.495,2.786,10.655A7.707,7.707,0,0,1,44,36.5C44,42.3,35.493,47,25,47S6,42.3,6,36.5a7.707,7.707,0,0,1,3.214-5.845C10.623,29.5,12,22.9,12,20A13,13,0,0,1,19.025,8.452,6,6,0,0,1,25,3Zm0,35.306c-4.115,0-5.053-2.275-5.492-3.393a3.033,3.033,0,0,0-3.782-1.756c-.2.066-.376.13-.53.19-2.589,1.023-4.2,2.446-4.2,4.02C11,40.479,17.268,43,25,43s14-2.522,14-5.633c0-1.574-1.607-3-4.2-4.02-.153-.06-.33-.124-.53-.19a3.033,3.033,0,0,0-3.78,1.756c-.44,1.117-1.378,3.393-5.493,3.393ZM24,11a8,8,0,0,0-8,8,2,2,0,0,0,4,0,4,4,0,0,1,4-4,2,2,0,0,0,0-4Z" transform="translate(-269 777)"/>
  </g>
</svg>
