<svg xmlns="http://www.w3.org/2000/svg" xmlns:xlink="http://www.w3.org/1999/xlink" width="92.704" height="92.704" viewBox="0 0 92.704 92.704">
  <defs>
    <style>
      .cls-1, .cls-3 {
        fill: #fff;
      }

      .cls-2 {
        fill: url(#linear-gradient);
      }

      .cls-3 {
        fill-rule: evenodd;
        opacity: 0.9;
      }
    </style>
    <linearGradient id="linear-gradient" x1="0.172" y1="0.144" x2="0.855" y2="0.838" gradientUnits="objectBoundingBox">
      <stop offset="0" stop-color="#3eecb2"/>
      <stop offset="1" stop-color="#16c98e"/>
    </linearGradient>
  </defs>
  <g id="m_icon_1" transform="translate(597 -618)">
    <path id="Path_80" data-name="Path 80" class="cls-1" d="M46.352,0A46.352,46.352,0,1,1,0,46.352,46.352,46.352,0,0,1,46.352,0Z" transform="translate(-597 618)"/>
    <path id="Path_1" data-name="Path 1" class="cls-2" d="M33.519,66.037a32.757,32.757,0,0,1-6.554-.661,32.33,32.33,0,0,1-11.627-4.893A32.614,32.614,0,0,1,3.555,46.176a32.351,32.351,0,0,1-1.895-6.1,32.838,32.838,0,0,1,0-13.108A32.34,32.34,0,0,1,6.553,15.337,32.614,32.614,0,0,1,20.861,3.555a32.354,32.354,0,0,1,6.1-1.895,32.838,32.838,0,0,1,13.108,0A32.338,32.338,0,0,1,51.7,6.553,32.617,32.617,0,0,1,63.482,20.861a32.353,32.353,0,0,1,1.894,6.1,32.838,32.838,0,0,1,0,13.108A32.329,32.329,0,0,1,60.483,51.7,32.617,32.617,0,0,1,46.176,63.482a32.349,32.349,0,0,1-6.1,1.894A32.757,32.757,0,0,1,33.519,66.037Z" transform="translate(-584.165 630.835)"/>
    <path id="Path_2" data-name="Path 2" class="cls-1" d="M32.781.524a32.5,32.5,0,0,0-6.5.655A32.077,32.077,0,0,0,14.746,6.033,32.352,32.352,0,0,0,3.059,20.225a32.09,32.09,0,0,0-1.879,6.054,32.576,32.576,0,0,0,0,13A32.079,32.079,0,0,0,6.033,50.815,32.352,32.352,0,0,0,20.225,62.5a32.1,32.1,0,0,0,6.054,1.879,32.585,32.585,0,0,0,13,0,32.077,32.077,0,0,0,11.533-4.853A32.352,32.352,0,0,0,62.5,45.336a32.1,32.1,0,0,0,1.879-6.054,32.585,32.585,0,0,0,0-13,32.075,32.075,0,0,0-4.853-11.533A32.353,32.353,0,0,0,45.336,3.059a32.092,32.092,0,0,0-6.054-1.879,32.5,32.5,0,0,0-6.5-.655m0-.524A32.781,32.781,0,1,1,0,32.781,32.78,32.78,0,0,1,32.781,0Z" transform="translate(-583.428 631.572)"/>
    <path id="edit-2" class="cls-3" d="M17.389,42.487A5.174,5.174,0,0,1,13.706,44L7.77,43.976A1.756,1.756,0,0,1,6.024,42.23L6,36.294a5.174,5.174,0,0,1,1.513-3.683l25.3-25.469a3.863,3.863,0,0,1,5.464-.021l4.59,4.59a3.863,3.863,0,0,1,0,5.463ZM36.757,18,40,14.857,35.143,10,32,13.243ZM14.586,6.586,21,13l-8,8L6.586,14.586a2,2,0,0,1,0-2.829l5.171-5.171a2,2,0,0,1,2.829,0ZM35.414,43.414,29,37l8-8,6.414,6.414a2,2,0,0,1,0,2.829l-5.171,5.171a2,2,0,0,1-2.829,0Z" transform="translate(-575 639)"/>
  </g>
</svg>
