<svg xmlns="http://www.w3.org/2000/svg" xmlns:xlink="http://www.w3.org/1999/xlink" width="155.037" height="155.037" viewBox="0 0 155.037 155.037">
  <defs>
    <style>
      .cls-1, .cls-3 {
        fill: #fff;
      }

      .cls-2 {
        fill: url(#linear-gradient);
      }

      .cls-3 {
        fill-rule: evenodd;
        opacity: 0.9;
      }

      .cls-4 {
        filter: url(#Path_3);
      }
    </style>
    <linearGradient id="linear-gradient" x1="0.919" y1="1" x2="0.25" y2="0.255" gradientUnits="objectBoundingBox">
      <stop offset="0" stop-color="#17d687"/>
      <stop offset="1" stop-color="#59ee9a"/>
    </linearGradient>
    <filter id="Path_3" x="0" y="0" width="155.037" height="155.037" filterUnits="userSpaceOnUse">
      <feOffset dy="3" input="SourceAlpha"/>
      <feGaussianBlur stdDeviation="15" result="blur"/>
      <feFlood flood-color="#b1ea8c" flood-opacity="0.302"/>
      <feComposite operator="in" in2="blur"/>
      <feComposite in="SourceGraphic"/>
    </filter>
  </defs>
  <g id="m_icon_3" transform="translate(321.87 -589.835)">
    <path id="Path_111" data-name="Path 111" class="cls-1" d="M46.352,0A46.352,46.352,0,1,1,0,46.352,46.352,46.352,0,0,1,46.352,0Z" transform="translate(-290.704 618)"/>
    <g class="cls-4" transform="matrix(1, 0, 0, 1, -321.87, 589.83)">
      <path id="Path_3-2" data-name="Path 3" class="cls-2" d="M33.519,66.037a32.757,32.757,0,0,1-6.554-.661,32.33,32.33,0,0,1-11.627-4.893A32.614,32.614,0,0,1,3.555,46.176a32.351,32.351,0,0,1-1.895-6.1,32.838,32.838,0,0,1,0-13.108A32.34,32.34,0,0,1,6.553,15.337,32.614,32.614,0,0,1,20.861,3.555a32.354,32.354,0,0,1,6.1-1.895,32.838,32.838,0,0,1,13.108,0A32.338,32.338,0,0,1,51.7,6.553,32.617,32.617,0,0,1,63.482,20.861a32.353,32.353,0,0,1,1.894,6.1,32.838,32.838,0,0,1,0,13.108A32.329,32.329,0,0,1,60.483,51.7,32.617,32.617,0,0,1,46.176,63.482a32.349,32.349,0,0,1-6.1,1.894A32.757,32.757,0,0,1,33.519,66.037Z" transform="translate(44 41)"/>
    </g>
    <path id="Path_4" data-name="Path 4" class="cls-1" d="M32.781.524a32.5,32.5,0,0,0-6.5.655A32.077,32.077,0,0,0,14.746,6.033,32.352,32.352,0,0,0,3.059,20.225a32.09,32.09,0,0,0-1.879,6.054,32.576,32.576,0,0,0,0,13A32.079,32.079,0,0,0,6.033,50.815,32.352,32.352,0,0,0,20.225,62.5a32.1,32.1,0,0,0,6.054,1.879,32.585,32.585,0,0,0,13,0,32.077,32.077,0,0,0,11.533-4.853A32.352,32.352,0,0,0,62.5,45.336a32.1,32.1,0,0,0,1.879-6.054,32.585,32.585,0,0,0,0-13,32.075,32.075,0,0,0-4.853-11.533A32.353,32.353,0,0,0,45.336,3.059a32.092,32.092,0,0,0-6.054-1.879,32.5,32.5,0,0,0-6.5-.655m0-.524A32.781,32.781,0,1,1,0,32.781,32.78,32.78,0,0,1,32.781,0Z" transform="translate(-277.132 631.572)"/>
    <path id="money-1" class="cls-3" d="M7,5H43a4,4,0,0,1,4,4V27a4,4,0,0,1-4,4H7a4,4,0,0,1-4-4V9A4,4,0,0,1,7,5ZM43,22.027V13.973A4.5,4.5,0,0,1,38.027,9H11.973A4.5,4.5,0,0,1,7,13.973v8.054A4.5,4.5,0,0,1,11.973,27H38.027A4.5,4.5,0,0,1,43,22.027ZM9,34H41a2,2,0,0,1,0,4H9a2,2,0,0,1,0-4Zm6,7H35a2,2,0,0,1,0,4H15a2,2,0,0,1,0-4ZM25,24a6,6,0,1,1,6-6,6,6,0,0,1-6,6Z" transform="translate(-269 641)"/>
  </g>
</svg>
