<svg xmlns="http://www.w3.org/2000/svg" xmlns:xlink="http://www.w3.org/1999/xlink" width="155.561" height="155.561" viewBox="0 0 155.561 155.561">
  <defs>
    <style>
      .cls-1, .cls-3 {
        fill: #fff;
      }

      .cls-2 {
        fill: url(#linear-gradient);
      }

      .cls-3 {
        fill-rule: evenodd;
        opacity: 0.9;
      }

      .cls-4 {
        filter: url(#Ellipse_17);
      }
    </style>
    <linearGradient id="linear-gradient" x1="1.072" y1="1.164" x2="0.381" y2="0.363" gradientUnits="objectBoundingBox">
      <stop offset="0" stop-color="#ff528c"/>
      <stop offset="1" stop-color="#ffabc7"/>
    </linearGradient>
    <filter id="Ellipse_17" x="0" y="0" width="155.561" height="155.561" filterUnits="userSpaceOnUse">
      <feOffset dy="3" input="SourceAlpha"/>
      <feGaussianBlur stdDeviation="15" result="blur"/>
      <feFlood flood-color="#ff0056" flood-opacity="0.302"/>
      <feComposite operator="in" in2="blur"/>
      <feComposite in="SourceGraphic"/>
    </filter>
  </defs>
  <g id="m_icon_5" transform="translate(628.428 -727.691)">
    <ellipse id="Ellipse_16" data-name="Ellipse 16" class="cls-1" cx="46.352" cy="46.352" rx="46.352" ry="46.352" transform="translate(-597 756.121)"/>
    <g class="cls-4" transform="matrix(1, 0, 0, 1, -628.43, 727.69)">
      <ellipse id="Ellipse_17-2" data-name="Ellipse 17" class="cls-2" cx="32.781" cy="32.781" rx="32.781" ry="32.781" transform="translate(45 42)"/>
    </g>
    <path id="like-1" class="cls-3" d="M25.678,8.48A11.465,11.465,0,0,1,34,5c7.276,0,13,5.947,13,14.316,0,5.02-2.47,9.194-7.032,13.7-.982.97-3.983,3.718-4.118,3.848q-.637.606-1.373,1.255-.954.84-1.936,1.646c-1.4,1.15-2.9,2.308-4.389,3.418q-.993.738-2,1.456a2,2,0,0,1-2.3,0q-1.008-.717-2-1.455-2.235-1.656-4.388-3.419-.982-.806-1.936-1.646-.735-.648-1.373-1.255c-.135-.13-3.136-2.879-4.118-3.848C5.471,28.51,3,24.337,3,19.316,3,10.946,8.724,5,16,5a11.461,11.461,0,0,1,8.322,3.48c.243.243.469.486.678.726.21-.24.435-.483.678-.725ZM15.5,24A5.5,5.5,0,1,0,10,18.5,5.5,5.5,0,0,0,15.5,24Z" transform="translate(-576 780)"/>
  </g>
</svg>
