<svg xmlns="http://www.w3.org/2000/svg" width="43.424" height="39.319" viewBox="0 0 43.424 39.319">
  <defs>
    <style>
      .cls-1 {
        fill: #fff;
      }
    </style>
  </defs>
  <path id="Path_9208" data-name="Path 9208" class="cls-1" d="M5.376-6.941A7.542,7.542,0,0,1,9.56-4.02a8.689,8.689,0,0,1,1.5,5.132A8.331,8.331,0,0,1,8.692,7.27,7.939,7.939,0,0,1,2.849,9.639,7.931,7.931,0,0,1-3.23,7.191,8.558,8.558,0,0,1-5.52,1.112,17.418,17.418,0,0,1-5.125-2.6a44.935,44.935,0,0,1,1.658-5.29L3.165-29.68h7.58Zm26.844,0A7.542,7.542,0,0,1,36.4-4.02a8.689,8.689,0,0,1,1.5,5.132A8.331,8.331,0,0,1,35.536,7.27a7.939,7.939,0,0,1-5.843,2.369,7.931,7.931,0,0,1-6.079-2.448,8.558,8.558,0,0,1-2.29-6.079A17.418,17.418,0,0,1,21.719-2.6a44.934,44.934,0,0,1,1.658-5.29L30.009-29.68h7.58Z" transform="translate(5.52 29.68)"/>
</svg>
