<svg xmlns="http://www.w3.org/2000/svg" xmlns:xlink="http://www.w3.org/1999/xlink" viewBox="0 0 34.528 33.703">
  <defs>
    <style>
      .cls-1 {
        fill: #fff;
        opacity: 0.69;
      }

      .cls-2 {
        filter: url(#star-shadow);
      }
    </style>
    <filter id="star-shadow" x="0" y="0" width="34.528" height="33.703" filterUnits="userSpaceOnUse">
      <feOffset dy="3" input="SourceAlpha"/>
      <feGaussianBlur stdDeviation="3" result="blur"/>
      <feFlood flood-opacity="0.161"/>
      <feComposite operator="in" in2="blur"/>
      <feComposite in="SourceGraphic"/>
    </filter>
  </defs>
  <g class="cls-2" transform="matrix(1, 0, 0, 1, 0, 0)">
    <path id="star-shadow-2" data-name="star-shadow" class="cls-1" d="M11.723,3.469l1.47,3.575,3.872.281A1.577,1.577,0,0,1,18.435,8.4a1.527,1.527,0,0,1-.487,1.651l-2.964,2.477.933,3.74a1.544,1.544,0,0,1-.586,1.651,1.585,1.585,0,0,1-1.767.066l-3.3-2.023L6.95,17.951a1.593,1.593,0,0,1-1.742-.058,1.56,1.56,0,0,1-.6-1.651L5.53,12.5,2.566,10.025a1.536,1.536,0,0,1-.52-1.651A1.56,1.56,0,0,1,3.483,7.308l3.872-.264,1.47-3.558a1.569,1.569,0,0,1,2.9,0Z" transform="translate(7.02 3.48)"/>
  </g>
</svg>
