<svg xmlns="http://www.w3.org/2000/svg" viewBox="0 0 16.528 15.703">
  <path d="M11.723,3.469l1.47,3.575,3.872.281A1.577,1.577,0,0,1,18.435,8.4a1.527,1.527,0,0,1-.487,1.651l-2.964,2.477.933,3.74a1.544,1.544,0,0,1-.586,1.651,1.585,1.585,0,0,1-1.767.066l-3.3-2.023L6.95,17.951a1.593,1.593,0,0,1-1.742-.058,1.56,1.56,0,0,1-.6-1.651L5.53,12.5,2.566,10.025a1.536,1.536,0,0,1-.52-1.651A1.56,1.56,0,0,1,3.483,7.308l3.872-.264,1.47-3.558a1.569,1.569,0,0,1,2.9,0Z" transform="translate(-1.98 -2.518)" fill="#fff" stroke="#d6d6d6" opacity="0.69"/>
</svg>
