<svg id="Capa_1" enable-background="new 0 0 512 512" height="512" viewBox="0 0 512 512" width="512" xmlns="http://www.w3.org/2000/svg"><g><path d="m494.28 54.555v442.432l-158.853-39.548-158.854 39.548-158.853-39.548v-442.432l158.853 39.548 158.854-39.548z" fill="#f0f7ff"/><path d="m494.28 54.555v442.432l-158.853-39.548v-442.432z" fill="#dfe7f4"/><path d="m401.644 238.158c-5.37 15.549-14.759 28.259-23.829 40.538-6.544 8.863-3.442 4.534-30.089 42.738-2.8 4.02-7.4 6.41-12.3 6.41s-9.5-2.39-12.299-6.41c-26.127-37.46-23.548-33.881-30.089-42.738-9.07-12.28-18.459-24.989-23.829-40.538-8.16-23.619-4.58-47.058 10.08-65.997 13.349-17.259 34.339-27.559 56.138-27.559 21.778 0 42.798 10.299 56.138 27.559 14.659 18.939 18.229 42.378 10.079 65.997z" fill="#ff4d4d"/><path d="m401.644 238.158c-5.37 15.549-14.759 28.259-23.829 40.538-6.544 8.863-3.442 4.534-30.089 42.738-2.8 4.02-7.4 6.41-12.3 6.41v-183.242c21.778 0 42.798 10.299 56.138 27.559 14.66 18.939 18.23 42.378 10.08 65.997z" fill="#cd0000"/><path d="m497.9 39.999c-133.22-33.17-156.32-39.33-162.47-39.94-1.91-.19-2.19.15-3.62.39l-155.24 38.65-155.22-38.65c-9.49-2.35-18.63 4.83-18.63 14.56v442.43c0 6.89 4.69 12.89 11.38 14.56 170.35 42.41 159.08 39.65 160.76 39.89 4.15.44-1.93 1.47 160.57-38.99l155.22 38.65c9.69 2.34 18.63-4.97 18.63-14.56v-442.43c0-6.89-4.69-12.89-11.38-14.56zm-336.33 437.8-128.85-32.08v-411.52l128.85 32.08zm317.71 0-128.85-32.08v-72.88c0-8.28-6.72-15-15-15s-15 6.72-15 15v72.88l-128.86 32.08v-411.52l128.86-32.08v65.4c0 8.28 6.72 15 15 15s15-6.72 15-15v-65.4l128.85 32.08z" fill="#59c36a"/><g><circle cx="335.424" cy="216.179" fill="#f0f7ff" r="14.999"/><path d="m350.424 216.179c0 8.28-6.72 14.999-14.999 14.999v-29.999c8.279 0 14.999 6.71 14.999 15z" fill="#dfe7f4"/></g><path d="m509.28 54.559v442.43c0 9.59-8.94 16.9-18.63 14.56l-155.22-38.65v-115.06c8.28 0 15 6.72 15 15v72.88l128.85 32.08v-411.52l-128.85-32.08v65.4c0 8.28-6.72 15-15 15v-114.54c6.15.61 29.25 6.77 162.47 39.94 6.69 1.67 11.38 7.67 11.38 14.56z" fill="#00a66c"/></g></svg>